<?xml version="1.0" encoding="UTF-8"?>

<svg xmlns="http://www.w3.org/2000/svg" xmlns:xlink="http://www.w3.org/1999/xlink" aria-hidden="true" role="img" class="iconify iconify--logos" width="16" height="16" viewBox="0 0 24 24" preserveAspectRatio="xMidYMid meet" >
	<path d="M2.002 11.748c-.017-.376.1-.76.348-1.044.46-.526 1.2-.522 1.655.02l2.857 3.395 4.99-5.842c.218-.256.516-.4.826-.4.31 0 .61.143.828.4l2.526 2.943 3.765-5.513c.085-.176.203-.328.343-.444.463-.396 1.118-.344 1.53.15.22.267.33.61.33.955v12.268C22 19.39 21.473 20 20.824 20H3.176C2.526 20 2 19.39 2 18.636v-6.818c0-.023 0-.047.002-.07z">
	</path>
</svg>
