<svg xmlns="http://www.w3.org/2000/svg" xmlns:xlink="http://www.w3.org/1999/xlink" aria-hidden="true" role="img" class="iconify iconify--logos" width="16" height="16" viewBox="0 0 24 24" data-icon="chart-bar">
	<path d="M7 24c-.6 0-1-.4-1-1V1c0-.6.4-1 1-1s1 .4 1 1v22c0 .6-.4 1-1 1zM17 24c-.6 0-1-.4-1-1V1c0-.6.4-1 1-1s1 .4 1 1v22c0 .6-.4 1-1 1zM23 7h-6c-.6 0-1-.4-1-1s.4-1 1-1h6c.6 0 1 .4 1 1s-.4 1-1 1zM7 17H1c-.6 0-1-.4-1-1s.4-1 1-1h6c.6 0 1 .4 1 1s-.4 1-1 1zM13 11H7c-.6 0-1-.4-1-1s.4-1 1-1h6c.6 0 1 .4 1 1s-.4 1-1 1zM17 17h-6c-.6 0-1-.4-1-1s.4-1 1-1h6c.6 0 1 .4 1 1s-.4 1-1 1z">
	</path>
</svg>
