<svg xmlns="http://www.w3.org/2000/svg" xmlns:xlink="http://www.w3.org/1999/xlink" aria-hidden="true" role="img" class="iconify iconify--logos" width="16" height="16" viewBox="0 0 24 24" data-icon="chart-candle" >
	<path d="M18 24c-.6 0-1-.4-1-1V1c0-.6.4-1 1-1s1 .4 1 1v22c0 .6-.4 1-1 1zM6 24c-.6 0-1-.4-1-1V1c0-.6.4-1 1-1s1 .4 1 1v22c0 .6-.4 1-1 1zM3 7h6c.6 0 1 .4 1 1v11c0 .6-.4 1-1 1H3c-.6 0-1-.4-1-1V8c0-.6.4-1 1-1zM8 20H4c-1.1 0-2-.9-2-2V9c0-1.1.9-2 2-2h4c1.1 0 2 .9 2 2v9c0 1.1-.9 2-2 2zM4 9v9h4V9H4zM15 4h6c.6 0 1 .4 1 1v11c0 .6-.4 1-1 1h-6c-.6 0-1-.4-1-1V5c0-.6.4-1 1-1zM20 17h-4c-1.1 0-2-.9-2-2V6c0-1.1.9-2 2-2h4c1.1 0 2 .9 2 2v9c0 1.1-.9 2-2 2zM16 6v9h4V6h-4z">
	</path>
</svg>
