<svg viewBox="0 0 139 40" href="https://cex.io/" class="cex-ui-icon cex-ui-icon-big cex-ui-header-main-logo" style="width: 139px; height: 40px;">
    <path d="M19.8572 22.2047H34.7936L37.1664 19.8345L34.7936 17.4644H19.8572C18.5459 17.4644 17.4844 18.5247 17.4844 19.8345C17.4844 21.1443 18.5459 22.2047 19.8572 22.2047Z" fill="#00CCCC"></path>
    <path d="M19.8571 8.73193C13.7251 8.73193 8.74219 13.7093 8.74219 19.8342C8.74219 25.9592 13.7251 30.9366 19.8571 30.9366H26.0514L30.7971 26.1963H19.8571C16.3478 26.1963 13.4879 23.3396 13.4879 19.8342C13.4879 16.3289 16.3478 13.4722 19.8571 13.4722H30.7971L26.0514 8.73193H19.8571Z" fill="#00CCCC"></path>
    <path d="M39.7139 30.9366V26.1963H36.1422L31.3965 30.9366H39.7139Z" fill="#00CCCC"></path>
    <path d="M5.8197 5.81312C2.06062 9.55548 0 14.5328 0 19.8345C0 25.1361 2.06062 30.1135 5.8197 33.8558C9.56629 37.5982 14.5617 39.6689 19.8569 39.6689H39.7138V34.9286H19.8569C15.8231 34.9286 12.0265 33.3568 9.16665 30.5127C6.31924 27.656 4.74568 23.8637 4.74568 19.8345C4.74568 15.8052 6.31924 12.013 9.16665 9.15629C12.0265 6.3121 15.8231 4.74031 19.8569 4.74031H39.7138V0H19.8569C14.5492 0 9.56629 2.05829 5.8197 5.81312Z" fill="#00CCCC"></path>
    <path d="M36.1422 13.4722H39.7139V8.73193H31.3965L36.1422 13.4722Z" fill="#00CCCC"></path>
    <path d="M67.4011 12.9419L68.3877 12.0937C66.352 10.0978 63.6545 9 60.7696 9C57.585 9 54.875 10.0354 52.9267 11.9939C50.9535 13.9898 49.8795 16.7966 49.917 19.9027C49.9295 22.8218 50.9161 25.4664 52.6894 27.375C54.6377 29.4707 57.4351 30.5684 60.7696 30.5684C63.6545 30.5684 66.352 29.4707 68.3877 27.4748L67.426 26.5641C65.6651 28.2606 63.2423 29.2337 60.7696 29.2337C57.8597 29.2337 55.4369 28.2606 53.7385 26.4269C52.2024 24.7553 51.3407 22.4226 51.3157 19.8404C51.3032 17.0461 52.2398 14.5636 53.9508 12.8422C55.6243 11.1581 57.9846 10.2599 60.7696 10.2599C63.2923 10.2724 65.6526 11.2205 67.4011 12.9419Z" fill="#262C33"></path>
    <path d="M72.6467 28.6723V28.5725V20.2395V20.1522H72.7466H85.1229V18.8299H72.7466H72.6467V18.7426V10.4845V10.3847H72.7466H86.3968V9H71.1855V30.057H86.097V28.6723H72.7466H72.6467Z" fill="#262C33"></path>
    <path d="M97.3235 19.2541L97.361 19.2042L104.517 9H102.968L96.5243 18.044L96.4493 18.1563L96.3619 18.044L89.9552 9H88.3692L95.5127 19.2042L95.5501 19.2541L95.5127 19.304L87.7822 30.057H89.5306L96.3619 20.3768L96.4493 20.2645L96.5243 20.3768L103.356 30.057H105.091L97.361 19.304L97.3235 19.2541Z" fill="#262C33"></path>
    <path d="M113.946 9H112.56V30.057H113.946V9Z" fill="#00CCCC"></path>
    <path d="M135.377 11.8941C133.491 9.99796 130.856 9 127.771 9C120.428 9 117.131 14.4514 117.131 19.8528C117.131 22.7594 118.08 25.4414 119.791 27.4124C121.714 29.6204 124.474 30.793 127.759 30.793C131.043 30.793 133.803 29.6328 135.726 27.4373C137.437 25.4788 138.386 22.8093 138.399 19.9152C138.424 16.7217 137.35 13.8775 135.377 11.8941ZM134.69 26.4768C133.016 28.4228 130.619 29.4457 127.759 29.4457C124.924 29.4457 122.538 28.4228 120.865 26.4768C119.379 24.7553 118.555 22.4101 118.542 19.8778C118.53 17.0585 119.454 14.5512 121.177 12.8297C122.801 11.1955 125.074 10.3348 127.759 10.3348C130.631 10.3348 133.041 11.3452 134.702 13.2413C136.188 14.9503 137.013 17.308 137.013 19.8778C137.013 22.3976 136.188 24.7428 134.69 26.4768Z" fill="#00CCCC"></path>
    <path d="M106.528 19C105.941 19 105.454 19.474 105.454 20.0728C105.454 20.6591 105.929 21.1456 106.528 21.1456C107.115 21.1456 107.602 20.6591 107.602 20.0728C107.602 19.4865 107.115 19 106.528 19Z" fill="#00CCCC"></path>

</svg>